<?xml version="1.0" standalone="no"?>
<!DOCTYPE svg PUBLIC "-//W3C//DTD SVG 20010904//EN"
 "http://www.w3.org/TR/2001/REC-SVG-20010904/DTD/svg10.dtd">
<svg version="1.0" xmlns="http://www.w3.org/2000/svg"
 width="1634.000000pt" height="1633.000000pt" viewBox="0 0 1634.000000 1633.000000"
 preserveAspectRatio="xMidYMid meet">

<g transform="translate(0.000000,1633.000000) scale(0.100000,-0.100000)"
fill="#000000" stroke="none">
<path d="M12959 14636 c-100 -27 -200 -110 -247 -206 -24 -49 -27 -66 -27
-160 0 -144 19 -182 172 -340 63 -66 112 -123 109 -128 -3 -5 -55 -42 -115
-82 l-111 -73 -185 181 c-229 224 -268 247 -410 247 -80 0 -97 -4 -157 -32
-197 -93 -279 -319 -186 -512 13 -28 73 -98 150 -177 70 -72 128 -134 128
-137 0 -7 -206 -147 -216 -147 -4 0 -85 77 -180 170 -138 136 -185 176 -234
199 -188 89 -410 11 -502 -177 -31 -62 -33 -74 -33 -167 0 -138 20 -176 176
-339 l120 -124 -162 -107 -162 -107 231 -231 232 -232 -1508 -1507 c-1503
-1504 -1507 -1507 -1582 -1541 -103 -47 -185 -74 -262 -87 -84 -15 -136 -2
-181 45 -41 42 -97 154 -97 192 0 65 88 198 263 400 198 229 307 407 343 560
26 113 16 275 -23 374 -42 107 -112 209 -218 315 -188 190 -373 272 -590 261
-420 -22 -795 -386 -1323 -1284 -54 -93 -216 -378 -360 -635 -417 -743 -442
-781 -676 -1013 -252 -250 -487 -418 -1106 -790 -712 -428 -987 -630 -1301
-952 -279 -287 -462 -579 -574 -917 -158 -472 -152 -989 17 -1481 261 -763
911 -1511 1758 -2023 892 -540 1834 -688 2586 -407 297 112 536 266 765 494
274 275 432 539 739 1241 79 179 174 387 211 462 187 374 404 672 714 984 247
248 452 414 776 627 224 148 312 216 428 330 273 269 413 548 412 821 0 185
-56 323 -180 446 -86 85 -156 129 -263 168 -68 25 -84 27 -228 26 -135 0 -174
-5 -304 -32 -83 -18 -179 -32 -216 -32 -61 0 -72 3 -126 39 -109 73 -164 137
-164 195 0 28 174 205 1740 1771 l1740 1740 225 -225 c123 -123 227 -221 231
-218 18 19 1734 3154 1730 3163 -7 17 -867 925 -876 925 -6 0 -62 -34 -126
-76 l-117 -75 -166 164 c-91 90 -185 176 -209 191 -81 51 -198 68 -293 42z
m1110 -1198 c48 -52 51 -59 40 -80 -72 -140 -1213 -2208 -1218 -2208 -3 0
-273 267 -600 594 l-594 595 354 234 c195 129 667 442 1049 695 l694 462 111
-118 c61 -64 134 -143 164 -174z m-4016 -4480 l-2148 -2148 -242 242 -243 243
2147 2147 2148 2148 242 -242 243 -243 -2147 -2147z m-2428 1467 c46 -27 141
-122 179 -179 62 -93 22 -179 -214 -456 -215 -254 -288 -363 -344 -515 -23
-64 -30 -102 -33 -190 -6 -134 8 -199 73 -334 89 -186 201 -309 349 -382 l86
-43 -515 -515 -516 -516 605 -605 605 -605 390 390 389 389 76 -81 c124 -134
289 -242 425 -279 106 -29 290 -24 470 14 262 55 311 53 370 -14 24 -28 30
-43 30 -82 -1 -135 -132 -346 -315 -505 -44 -38 -170 -129 -280 -202 -633
-420 -1068 -839 -1424 -1372 -163 -245 -280 -473 -491 -958 -259 -594 -392
-823 -610 -1049 -245 -253 -552 -411 -930 -478 -116 -20 -488 -17 -625 5 -711
116 -1439 520 -2021 1120 -430 443 -703 936 -780 1412 -21 132 -24 402 -5 520
83 519 349 921 890 1343 160 125 438 307 816 534 713 430 943 595 1235 887
271 272 322 349 800 1206 458 821 672 1148 906 1380 182 181 297 227 409 160z"/>
<path d="M6253 6720 c-60 -24 -123 -81 -155 -142 -31 -58 -33 -202 -4 -263 13
-26 175 -196 465 -487 498 -499 488 -491 617 -491 90 0 165 33 223 99 49 56
71 118 71 203 0 125 -1 126 -483 607 -274 274 -450 442 -481 459 -66 39 -177
45 -253 15z"/>
<path d="M4380 5369 c-58 -26 -115 -81 -148 -144 -36 -69 -37 -188 -3 -255 16
-31 249 -271 769 -793 828 -828 797 -802 921 -800 119 1 212 55 265 153 38 69
46 164 21 241 -16 51 -56 92 -774 812 -582 583 -767 763 -805 782 -66 33 -179
35 -246 4z"/>
</g>
</svg>
