<?xml version="1.0" standalone="no"?>
<!DOCTYPE svg PUBLIC "-//W3C//DTD SVG 20010904//EN"
 "http://www.w3.org/TR/2001/REC-SVG-20010904/DTD/svg10.dtd">
<svg version="1.0" xmlns="http://www.w3.org/2000/svg"
 width="1634.000000pt" height="1633.000000pt" viewBox="0 0 1634.000000 1633.000000"
 preserveAspectRatio="xMidYMid meet">

<g transform="translate(0.000000,1633.000000) scale(0.100000,-0.100000)"
fill="#000000" stroke="none">
<path d="M11770 12405 c-92 -17 -235 -66 -310 -106 -153 -81 -186 -113 -2755
-2679 l-2520 -2518 -105 -6 c-386 -24 -691 -154 -923 -395 -95 -98 -147 -172
-204 -286 -86 -170 -122 -340 -148 -690 -8 -121 -22 -260 -30 -310 -46 -286
-212 -544 -468 -726 -94 -67 -289 -162 -399 -193 -47 -14 -230 -52 -405 -86
-175 -33 -326 -63 -336 -66 -13 -4 53 -53 237 -174 347 -229 429 -279 586
-353 255 -122 500 -196 800 -242 147 -22 486 -31 645 -16 778 73 1447 433
1880 1011 109 145 228 367 271 503 16 53 27 66 123 152 191 169 5193 5183
5263 5275 114 150 175 276 214 445 28 120 26 369 -4 488 -56 223 -150 383
-341 580 -199 206 -379 317 -610 379 -101 27 -352 34 -461 13z m390 -529 c94
-32 162 -79 278 -190 104 -100 181 -198 211 -269 34 -78 54 -202 47 -280 -9
-98 -49 -210 -103 -287 -29 -41 -676 -695 -1744 -1765 l-1699 -1700 -485 485
c-267 267 -485 490 -485 495 0 18 3329 3337 3415 3405 134 106 242 143 401
136 63 -3 113 -12 164 -30z m-3937 -5418 l-561 -561 -11 44 c-6 24 -24 85 -40
135 -95 298 -302 567 -579 753 -57 38 -205 120 -242 133 -10 4 145 167 500
522 l515 516 490 -490 490 -490 -562 -562z m-1810 88 c54 -14 144 -47 200 -74
274 -131 460 -352 529 -629 33 -131 31 -340 -5 -475 -68 -259 -200 -478 -416
-695 -320 -322 -757 -528 -1261 -594 -118 -15 -425 -15 -545 0 -164 21 -435
83 -435 100 0 3 21 19 48 36 310 196 555 490 675 810 65 174 96 347 117 665
25 369 63 494 193 636 115 125 261 203 452 240 111 21 327 12 448 -20z"/>
</g>
</svg>
