<?xml version="1.0" standalone="no"?>
<!DOCTYPE svg PUBLIC "-//W3C//DTD SVG 20010904//EN"
 "http://www.w3.org/TR/2001/REC-SVG-20010904/DTD/svg10.dtd">
<svg version="1.0" xmlns="http://www.w3.org/2000/svg"
 width="1633.000000pt" height="1634.000000pt" viewBox="0 0 1633.000000 1634.000000"
 preserveAspectRatio="xMidYMid meet">

<g transform="translate(0.000000,1634.000000) scale(0.100000,-0.100000)"
fill="#000000" stroke="none">
<path d="M9192 12216 c-172 -33 -365 -116 -495 -214 -43 -32 -126 -102 -185
-155 -59 -53 -1023 -1013 -2143 -2134 -1355 -1357 -2063 -2072 -2116 -2140
-134 -167 -203 -304 -255 -500 -20 -78 -23 -110 -22 -273 0 -168 3 -194 27
-281 33 -121 92 -257 149 -345 84 -130 202 -260 606 -666 l405 -407 -709 -3
c-696 -3 -710 -3 -754 -24 -88 -41 -160 -151 -160 -244 0 -97 79 -212 168
-247 45 -17 237 -18 4462 -18 4225 0 4417 1 4462 18 89 35 168 150 168 247 0
93 -72 203 -160 244 l-45 21 -1940 3 -1939 2 1630 1633 c905 905 1669 1678
1716 1736 102 123 165 225 213 343 140 342 118 700 -61 1027 -48 87 -122 184
-242 316 -160 176 -1709 1715 -1797 1785 -170 135 -313 209 -495 257 -119 32
-370 41 -488 19z m406 -532 c106 -35 179 -79 289 -176 142 -124 1765 -1757
1817 -1828 202 -273 197 -590 -14 -855 -35 -44 -657 -674 -1382 -1400 l-1318
-1320 -637 635 c-351 350 -971 967 -1379 1372 l-741 736 1331 1329 c1231 1230
1398 1392 1496 1450 156 94 362 116 538 57z m-2345 -4574 l1375 -1365 -321
-322 -322 -323 -1045 0 -1046 0 -605 608 c-369 370 -629 639 -666 689 -137
184 -176 405 -108 610 32 95 61 146 133 238 60 75 1212 1237 1223 1233 3 -2
625 -617 1382 -1368z"/>
</g>
</svg>
