<?xml version="1.0" standalone="no"?>
<!DOCTYPE svg PUBLIC "-//W3C//DTD SVG 20010904//EN"
 "http://www.w3.org/TR/2001/REC-SVG-20010904/DTD/svg10.dtd">
<svg version="1.0" xmlns="http://www.w3.org/2000/svg"
 width="1634.000000pt" height="1633.000000pt" viewBox="0 0 1634.000000 1633.000000"
 preserveAspectRatio="xMidYMid meet">

<g transform="translate(0.000000,1633.000000) scale(0.100000,-0.100000)"
fill="#000000" stroke="none">
<path d="M4815 12204 c-198 -32 -393 -145 -515 -297 -115 -144 -172 -310 -173
-502 0 -149 17 -223 85 -365 46 -95 61 -115 152 -205 86 -86 115 -108 196
-148 130 -65 228 -89 365 -89 141 -1 232 20 360 82 268 130 433 379 452 680
23 371 -225 717 -589 820 -72 21 -265 34 -333 24z"/>
<path d="M8038 12200 c-88 -16 -163 -42 -253 -88 -73 -37 -108 -64 -185 -142
-78 -77 -105 -112 -143 -186 -73 -142 -92 -223 -91 -384 0 -160 14 -223 80
-356 245 -499 918 -604 1300 -203 154 162 225 336 226 554 2 371 -230 682
-587 786 -79 23 -270 34 -347 19z"/>
<path d="M11265 12199 c-302 -56 -541 -268 -635 -564 -34 -106 -39 -301 -12
-416 72 -299 290 -521 591 -601 105 -27 287 -27 391 0 287 76 508 294 586 577
25 93 30 266 9 366 -54 268 -249 500 -501 595 -133 50 -299 66 -429 43z"/>
<path d="M8005 9106 c-156 -36 -279 -102 -392 -209 -406 -386 -307 -1056 192
-1303 125 -61 221 -84 359 -84 222 0 404 71 559 219 401 381 308 1045 -182
1300 -116 60 -205 82 -351 87 -84 2 -145 -1 -185 -10z"/>
<path d="M11280 9113 c-255 -44 -474 -201 -589 -422 -71 -137 -86 -204 -86
-381 0 -149 1 -159 33 -248 49 -143 121 -254 222 -345 157 -141 330 -207 546
-207 303 0 575 163 714 430 106 205 119 463 33 677 -98 245 -325 433 -586 487
-70 15 -226 19 -287 9z"/>
<path d="M4765 8955 c-304 -67 -535 -288 -616 -590 -16 -61 -21 -109 -21 -200
0 -237 84 -431 256 -592 84 -80 177 -134 296 -174 81 -27 113 -33 220 -37 142
-5 249 14 363 67 213 96 383 295 449 527 32 113 32 305 0 418 -66 232 -236
431 -448 527 -142 65 -350 87 -499 54z"/>
<path d="M4831 5730 c-94 -13 -195 -46 -286 -93 -61 -32 -104 -65 -181 -142
-92 -91 -106 -110 -152 -205 -68 -142 -85 -216 -85 -365 1 -143 23 -239 83
-360 102 -203 296 -361 520 -421 100 -28 311 -25 413 4 492 141 734 679 512
1137 -79 161 -203 284 -370 365 -146 71 -309 99 -454 80z"/>
<path d="M8070 5730 c-274 -37 -505 -201 -624 -444 -66 -133 -80 -196 -80
-356 -1 -161 18 -242 91 -384 38 -74 65 -109 143 -186 77 -78 112 -105 186
-143 141 -72 223 -91 384 -91 154 0 215 13 347 75 284 135 457 413 455 734 -1
218 -72 392 -226 554 -171 179 -434 273 -676 241z"/>
<path d="M11308 5730 c-187 -23 -359 -109 -489 -247 -103 -108 -165 -223 -201
-372 -27 -115 -22 -310 12 -416 145 -454 622 -687 1064 -521 194 73 375 248
455 439 63 153 79 369 37 522 -106 387 -483 643 -878 595z"/>
</g>
</svg>
