<?xml version="1.0" standalone="no"?>
<!DOCTYPE svg PUBLIC "-//W3C//DTD SVG 20010904//EN"
 "http://www.w3.org/TR/2001/REC-SVG-20010904/DTD/svg10.dtd">
<svg version="1.0" xmlns="http://www.w3.org/2000/svg"
 width="1634.000000pt" height="1634.000000pt" viewBox="0 0 1634.000000 1634.000000"
 preserveAspectRatio="xMidYMid meet">

<g transform="translate(0.000000,1634.000000) scale(0.100000,-0.100000)"
fill="#000000" stroke="none">
<path d="M12722 14595 c-78 -17 -159 -54 -226 -102 -60 -43 -1081 -1056 -1198
-1188 -95 -108 -144 -202 -164 -318 -29 -160 10 -319 109 -449 l35 -45 -872
-872 -872 -872 -64 42 c-615 397 -1368 604 -2039 560 -374 -25 -660 -99 -952
-247 -433 -220 -711 -523 -931 -1018 -96 -215 -204 -431 -250 -498 -100 -148
-268 -278 -465 -361 -150 -63 -262 -96 -600 -177 -405 -96 -543 -136 -710
-206 -284 -117 -532 -283 -748 -499 -413 -413 -663 -965 -747 -1655 -20 -161
-17 -621 5 -800 64 -518 197 -960 422 -1410 341 -680 883 -1286 1542 -1723
581 -385 1201 -612 1861 -682 182 -20 562 -19 748 0 531 56 1035 227 1425 483
505 332 816 775 943 1342 14 63 44 228 66 365 79 483 128 642 253 812 95 129
223 208 578 361 223 96 303 136 419 208 444 274 784 732 939 1265 75 259 104
477 105 779 0 228 -9 331 -45 540 -75 434 -271 912 -534 1303 l-35 52 867 867
867 867 35 -28 c135 -106 325 -145 495 -101 161 41 141 24 837 719 612 612
638 639 673 711 54 113 70 187 63 300 -7 113 -32 194 -89 282 -53 84 -1228
1260 -1310 1312 -124 78 -303 112 -436 81z m740 -1093 c419 -418 588 -593 588
-609 0 -12 -22 -48 -49 -80 -89 -106 -1105 -1111 -1134 -1122 -22 -8 -34 -8
-55 3 -15 8 -285 273 -599 588 -536 537 -573 576 -573 608 0 32 37 72 583 617
546 547 585 583 617 583 33 0 71 -36 622 -588z m-1597 -1602 l220 -220 -1845
-1845 -1845 -1846 -40 48 c-113 136 -253 263 -374 341 l-54 34 1854 1854
c1020 1020 1856 1854 1859 1854 3 0 104 -99 225 -220z m-3961 -1075 c410 -48
831 -192 1195 -409 l64 -38 -884 -884 -884 -884 -80 7 c-117 12 -329 8 -415
-6 -191 -32 -372 -95 -525 -182 -816 -465 -1042 -1520 -487 -2279 133 -182
366 -374 575 -474 488 -233 1074 -194 1522 102 540 356 804 1005 665 1632
l-19 85 857 858 857 858 20 -25 c37 -47 156 -264 211 -388 103 -228 180 -484
221 -733 14 -88 18 -164 17 -385 0 -256 -2 -284 -27 -413 -99 -505 -355 -912
-731 -1159 -114 -75 -173 -105 -407 -206 -102 -44 -228 -102 -280 -127 -360
-181 -566 -416 -698 -798 -51 -148 -80 -278 -136 -617 -53 -319 -75 -418 -122
-554 -213 -615 -828 -1053 -1678 -1195 -274 -46 -624 -52 -903 -16 -763 98
-1510 464 -2102 1029 -693 663 -1086 1444 -1191 2366 -16 138 -16 507 0 640
38 324 108 572 231 825 185 380 460 669 808 848 183 95 327 141 773 247 162
39 332 82 379 96 493 146 796 351 1013 685 64 99 149 263 237 464 139 316 223
448 386 604 240 232 553 373 939 425 138 19 442 19 599 1z m-514 -2744 c394
-103 695 -429 765 -830 110 -629 -380 -1211 -1020 -1211 -474 0 -886 321
-1007 785 -20 77 -23 113 -23 255 1 182 15 257 75 399 129 303 400 532 715
604 109 25 112 26 265 23 111 -2 165 -8 230 -25z"/>
<path d="M4485 6321 c-95 -25 -171 -87 -208 -170 -31 -66 -30 -178 1 -246 19
-41 156 -183 775 -801 504 -504 765 -757 792 -770 60 -29 205 -27 262 4 143
75 202 252 134 397 -35 73 -1493 1532 -1564 1564 -53 24 -146 35 -192 22z"/>
</g>
</svg>
