<?xml version="1.0" standalone="no"?>
<!DOCTYPE svg PUBLIC "-//W3C//DTD SVG 20010904//EN"
 "http://www.w3.org/TR/2001/REC-SVG-20010904/DTD/svg10.dtd">
<svg version="1.0" xmlns="http://www.w3.org/2000/svg"
 width="1634.000000pt" height="1634.000000pt" viewBox="0 0 1634.000000 1634.000000"
 preserveAspectRatio="xMidYMid meet">

<g transform="translate(0.000000,1634.000000) scale(0.100000,-0.100000)"
fill="#000000" stroke="none">
<path d="M7989 12359 c-1365 -70 -2629 -784 -3398 -1918 -234 -347 -409 -702
-540 -1101 -63 -194 -92 -310 -78 -315 48 -17 474 -114 484 -111 7 3 13 11 13
18 0 25 82 284 132 418 57 155 189 433 273 576 382 652 943 1177 1621 1517
390 195 789 316 1254 379 221 30 687 32 910 5 761 -94 1427 -373 2016 -845
118 -95 386 -350 382 -364 -2 -4 -144 -84 -317 -176 -172 -92 -314 -171 -315
-174 0 -4 409 -296 909 -650 l910 -644 3 50 c3 53 -43 1832 -54 2062 l-6 131
-323 -173 -324 -174 -158 161 c-243 248 -471 437 -739 612 -663 433 -1397 673
-2199 717 -198 11 -241 11 -456 -1z"/>
<path d="M11875 7418 c-2 -7 -20 -71 -40 -143 -185 -648 -576 -1283 -1071
-1740 -628 -579 -1362 -917 -2214 -1021 -182 -23 -645 -26 -825 -6 -887 98
-1694 474 -2315 1079 -74 72 -132 134 -129 137 4 4 147 82 319 174 172 92 311
172 310 177 -1 6 -410 299 -909 651 -903 639 -906 641 -909 610 -2 -17 11
-517 28 -1111 16 -595 30 -1086 30 -1092 0 -6 146 67 325 163 179 96 329 174
333 174 4 0 15 -12 24 -27 22 -37 320 -329 433 -424 1096 -923 2556 -1259
3939 -907 976 248 1833 822 2436 1633 238 319 418 644 566 1021 64 163 160
463 166 519 l3 29 -230 57 c-250 63 -264 65 -270 47z"/>
</g>
</svg>
