<?xml version="1.0" standalone="no"?>
<!DOCTYPE svg PUBLIC "-//W3C//DTD SVG 20010904//EN"
 "http://www.w3.org/TR/2001/REC-SVG-20010904/DTD/svg10.dtd">
<svg version="1.0" xmlns="http://www.w3.org/2000/svg"
 width="1634.000000pt" height="1634.000000pt" viewBox="0 0 1634.000000 1634.000000"
 preserveAspectRatio="xMidYMid meet">

<g transform="translate(0.000000,1634.000000) scale(0.100000,-0.100000)"
fill="#000000" stroke="none">
<path d="M3030 13330 c-141 -11 -218 -26 -313 -60 -315 -115 -555 -389 -622
-711 -9 -40 -20 -136 -25 -213 -13 -190 -13 -6522 0 -6712 11 -164 29 -256 69
-360 126 -323 416 -555 765 -611 144 -24 698 -24 842 0 349 56 639 288 765
611 73 189 79 289 79 1429 l0 927 315 0 315 0 0 -667 c0 -740 8 -912 45 -1060
95 -375 409 -658 800 -720 143 -23 707 -23 850 0 391 62 705 345 800 720 37
148 45 320 45 1060 l0 667 315 0 315 0 0 -437 c0 -618 13 -769 79 -939 126
-323 416 -555 765 -611 144 -24 698 -24 842 0 349 56 639 288 765 611 66 170
79 321 79 944 l0 442 320 0 320 0 0 -212 c0 -250 13 -466 35 -566 67 -320 303
-591 615 -709 149 -56 249 -67 615 -67 366 0 466 11 615 67 312 118 548 389
615 709 31 146 35 367 35 2128 0 1761 -4 1982 -35 2128 -67 320 -303 591 -615
709 -149 56 -249 67 -615 67 -366 0 -466 -11 -615 -67 -312 -118 -548 -389
-615 -709 -21 -99 -35 -315 -35 -555 l0 -203 -320 0 -320 0 0 433 c0 611 -13
763 -79 933 -126 323 -416 555 -765 611 -144 24 -698 24 -842 0 -349 -56 -639
-288 -765 -611 -66 -170 -79 -322 -79 -933 l0 -433 -315 0 -315 0 0 659 c0
723 -8 912 -46 1060 -94 372 -409 656 -799 718 -144 23 -707 24 -850 0 -391
-63 -705 -346 -800 -720 -37 -148 -45 -320 -45 -1054 l0 -663 -315 0 -315 0 0
923 c0 922 -6 1140 -35 1276 -81 388 -408 695 -804 757 -114 18 -566 27 -721
14z m605 -520 c234 -27 396 -187 425 -420 14 -118 14 -6682 0 -6800 -29 -233
-194 -396 -426 -420 -115 -12 -503 -12 -618 0 -232 24 -397 187 -426 420 -13
113 -14 6679 0 6799 26 225 196 398 412 421 110 11 531 11 633 0z m3170 -520
c234 -27 396 -187 425 -420 14 -117 14 -5643 0 -5760 -29 -233 -191 -393 -425
-420 -116 -13 -514 -13 -630 0 -234 27 -396 187 -425 420 -14 117 -14 5643 0
5760 28 226 192 393 410 419 107 12 538 13 645 1z m3160 -460 c234 -27 396
-187 425 -420 7 -56 10 -868 10 -2420 0 -1552 -3 -2364 -10 -2420 -29 -233
-194 -396 -426 -420 -115 -12 -503 -12 -618 0 -232 24 -400 189 -426 421 -13
114 -13 4724 0 4838 26 225 196 398 412 421 110 11 531 11 633 0z m3274 -479
c149 -52 248 -151 303 -303 l23 -63 0 -1995 0 -1995 -23 -63 c-55 -152 -153
-250 -303 -304 -62 -22 -74 -23 -414 -23 -340 0 -352 1 -414 23 -150 54 -248
152 -303 304 l-23 63 0 1995 0 1995 23 64 c67 184 209 299 397 321 39 5 205 7
370 6 281 -3 304 -4 364 -25z m-8019 -2361 l0 -850 -315 0 -315 0 0 850 0 850
315 0 315 0 0 -850z m3170 5 l0 -845 -315 0 -315 0 0 845 0 845 315 0 315 0 0
-845z m3170 0 l0 -845 -320 0 -320 0 0 845 0 845 320 0 320 0 0 -845z"/>
<path d="M3191 10564 c-166 -44 -301 -188 -341 -363 -17 -73 -8 -201 20 -274
70 -186 251 -307 456 -307 267 0 475 208 475 475 1 139 -44 250 -140 346 -121
120 -303 168 -470 123z"/>
<path d="M3245 8359 c-135 -20 -283 -124 -347 -245 -74 -138 -77 -307 -7 -450
34 -72 129 -166 206 -207 194 -100 408 -68 565 84 158 155 187 413 67 600
-102 160 -295 247 -484 218z"/>
<path d="M6348 10561 c-160 -53 -272 -166 -320 -324 -17 -57 -20 -87 -16 -167
4 -87 9 -107 41 -175 49 -103 129 -183 234 -233 77 -37 79 -37 203 -37 123 0
126 1 200 36 93 45 152 96 202 173 137 213 90 496 -109 648 -88 66 -157 90
-278 94 -79 3 -112 0 -157 -15z"/>
<path d="M6415 8360 c-165 -29 -290 -124 -363 -278 -36 -76 -37 -79 -37 -197
0 -102 4 -129 24 -178 32 -82 105 -174 176 -222 321 -218 755 9 755 394 0 128
-39 232 -121 325 -104 118 -283 182 -434 156z"/>
<path d="M9520 10561 c-211 -68 -342 -242 -343 -456 -1 -217 127 -396 333
-465 86 -29 235 -25 323 9 127 50 241 169 283 298 28 86 26 238 -6 318 -59
152 -190 270 -340 304 -69 16 -188 12 -250 -8z"/>
<path d="M9605 8363 c-113 -15 -199 -57 -278 -132 -158 -150 -196 -360 -102
-559 139 -295 527 -363 766 -135 196 187 198 495 4 690 -97 96 -262 154 -390
136z"/>
<path d="M12699 10566 c-233 -65 -390 -305 -351 -538 23 -138 114 -275 228
-345 138 -84 360 -84 498 0 114 70 205 207 228 345 39 235 -119 475 -356 538
-63 17 -185 17 -247 0z"/>
<path d="M12745 8359 c-251 -37 -439 -299 -397 -552 40 -234 242 -407 477
-407 129 0 246 50 341 144 149 149 183 363 88 554 -93 190 -294 293 -509 261z"/>
<path d="M10722 3919 c-85 -14 -201 -57 -276 -101 -135 -80 -287 -253 -332
-379 l-18 -49 -2610 -2 -2611 -3 -45 -21 c-88 -41 -160 -151 -160 -244 0 -93
72 -203 160 -244 l45 -21 2610 -3 2610 -3 43 -88 c101 -209 294 -362 531 -422
71 -18 105 -21 215 -17 115 4 143 9 226 37 254 86 437 275 520 536 34 106 39
292 11 407 -37 157 -107 282 -217 393 -180 180 -450 266 -702 224z"/>
</g>
</svg>
