<?xml version="1.0" standalone="no"?>
<!DOCTYPE svg PUBLIC "-//W3C//DTD SVG 20010904//EN"
 "http://www.w3.org/TR/2001/REC-SVG-20010904/DTD/svg10.dtd">
<svg version="1.0" xmlns="http://www.w3.org/2000/svg"
 width="1633.000000pt" height="1633.000000pt" viewBox="0 0 1633.000000 1633.000000"
 preserveAspectRatio="xMidYMid meet">

<g transform="translate(0.000000,1633.000000) scale(0.100000,-0.100000)"
fill="#000000" stroke="none">
<path d="M10810 13634 c-19 -2 -84 -9 -145 -15 -228 -23 -464 -75 -694 -154
-589 -202 -1065 -567 -1454 -1113 -110 -155 -161 -234 -375 -582 -325 -530
-455 -709 -687 -948 -218 -225 -405 -374 -650 -517 -292 -170 -630 -282 -954
-315 -66 -6 -575 -10 -1410 -10 -1341 0 -1576 -6 -1749 -39 -477 -93 -840
-456 -933 -933 -10 -53 -23 -175 -29 -270 -13 -234 -13 -5042 0 -5276 16 -269
52 -420 143 -597 108 -208 300 -397 512 -503 163 -81 320 -117 577 -132 237
-13 10079 -13 10316 0 95 6 217 19 270 29 477 94 840 456 933 934 38 196 40
395 36 3097 -4 2508 -8 2892 -37 3435 -51 955 -212 1676 -494 2220 -434 836
-1191 1408 -2131 1610 -267 57 -434 75 -740 80 -148 2 -286 1 -305 -1z m623
-529 c911 -107 1629 -568 2056 -1321 238 -421 392 -1017 455 -1764 36 -422 56
-1129 56 -2012 l0 -548 -5880 0 -5880 0 0 608 c0 340 5 660 11 727 18 206 71
329 198 456 127 127 250 180 456 198 76 7 599 11 1430 11 1303 0 1487 4 1700
36 424 63 819 219 1205 475 203 135 339 248 526 434 304 303 441 487 814 1095
315 515 440 689 634 889 434 447 989 692 1661 735 108 7 432 -4 558 -19z
m-8153 -7375 l0 -1210 160 0 160 0 0 -890 0 -890 -287 0 c-557 0 -686 32 -864
209 -127 127 -180 250 -198 456 -7 78 -11 718 -11 1828 l0 1707 520 0 520 0 0
-1210z m1740 0 l0 -1210 160 0 160 0 0 -890 0 -890 -610 0 -610 0 0 890 0 890
165 0 165 0 0 1210 0 1210 285 0 285 0 0 -1210z m2000 -890 l0 -2100 -580 0
-580 0 0 890 0 890 165 0 165 0 0 1210 0 1210 415 0 415 0 0 -2100z m1350 890
l0 -1210 165 0 165 0 0 -890 0 -890 -580 0 -580 0 0 2100 0 2100 415 0 415 0
0 -1210z m1680 0 l0 -1210 160 0 160 0 0 -890 0 -890 -575 0 -575 0 0 890 0
890 160 0 160 0 0 1210 0 1210 255 0 255 0 0 -1210z m1670 0 l0 -1210 165 0
165 0 0 -890 0 -890 -580 0 -580 0 0 890 0 890 165 0 165 0 0 1210 0 1210 250
0 250 0 0 -1210z m2280 -497 c0 -1110 -4 -1750 -11 -1828 -18 -206 -71 -329
-198 -456 -127 -127 -250 -180 -456 -198 -66 -6 -265 -11 -442 -11 l-323 0 0
890 0 890 160 0 160 0 0 1210 0 1210 555 0 555 0 0 -1707z"/>
</g>
</svg>
