<?xml version="1.0" standalone="no"?>
<!DOCTYPE svg PUBLIC "-//W3C//DTD SVG 20010904//EN"
 "http://www.w3.org/TR/2001/REC-SVG-20010904/DTD/svg10.dtd">
<svg version="1.0" xmlns="http://www.w3.org/2000/svg"
 width="1634.000000pt" height="1633.000000pt" viewBox="0 0 1634.000000 1633.000000"
 preserveAspectRatio="xMidYMid meet">

<g transform="translate(0.000000,1633.000000) scale(0.100000,-0.100000)"
fill="#000000" stroke="none">
<path d="M5834 11864 c-58 -21 -120 -77 -152 -138 l-27 -51 0 -3510 0 -3510
27 -51 c72 -137 207 -195 335 -146 44 17 5789 3329 5937 3422 76 48 150 125
176 183 22 48 26 145 8 198 -17 51 -51 97 -94 128 -22 16 -1175 685 -2564
1486 -1389 802 -2716 1568 -2948 1702 -233 135 -452 258 -485 274 -70 33 -144
37 -213 13z m3185 -2352 c1295 -747 2356 -1363 2358 -1368 2 -5 -115 -77 -259
-160 -145 -84 -1308 -755 -2586 -1493 -1277 -737 -2325 -1341 -2327 -1341 -3
0 -5 1348 -5 2995 l0 2994 233 -134 c127 -74 1292 -746 2586 -1493z"/>
</g>
</svg>
