<?xml version="1.0" standalone="no"?>
<!DOCTYPE svg PUBLIC "-//W3C//DTD SVG 20010904//EN"
 "http://www.w3.org/TR/2001/REC-SVG-20010904/DTD/svg10.dtd">
<svg version="1.0" xmlns="http://www.w3.org/2000/svg"
 width="1633.000000pt" height="1634.000000pt" viewBox="0 0 1633.000000 1634.000000"
 preserveAspectRatio="xMidYMid meet">

<g transform="translate(0.000000,1634.000000) scale(0.100000,-0.100000)"
fill="#000000" stroke="none">
<path d="M8715 11971 c-178 -47 -267 -242 -180 -398 14 -26 615 -750 1336
-1608 l1309 -1560 -3382 -5 -3383 -5 -45 -21 c-66 -31 -106 -68 -134 -127 -36
-72 -42 -131 -22 -200 23 -78 70 -136 141 -172 l59 -30 3341 -5 3341 -5 -1268
-1510 c-697 -830 -1279 -1531 -1293 -1558 -101 -182 33 -402 245 -401 91 0
144 28 224 117 35 40 691 819 1457 1732 765 913 1413 1684 1439 1713 127 143
142 296 42 427 -65 85 -2912 3477 -2961 3528 -25 26 -64 56 -86 67 -46 22
-136 33 -180 21z"/>
</g>
</svg>
