<?xml version="1.0" standalone="no"?>
<!DOCTYPE svg PUBLIC "-//W3C//DTD SVG 20010904//EN"
 "http://www.w3.org/TR/2001/REC-SVG-20010904/DTD/svg10.dtd">
<svg version="1.0" xmlns="http://www.w3.org/2000/svg"
 width="1633.000000pt" height="1633.000000pt" viewBox="0 0 1633.000000 1633.000000"
 preserveAspectRatio="xMidYMid meet">

<g transform="translate(0.000000,1633.000000) scale(0.100000,-0.100000)"
fill="#000000" stroke="none">
<path d="M5891 11649 c-74 -4 -177 -15 -230 -24 -484 -87 -857 -454 -952 -937
-35 -183 -39 -394 -39 -2523 0 -2129 4 -2340 39 -2523 93 -477 456 -840 933
-933 183 -35 394 -39 2523 -39 2129 0 2340 4 2523 39 477 93 840 456 933 933
35 183 39 394 39 2523 0 2129 -4 2340 -39 2523 -93 477 -456 840 -933 933 -53
10 -175 23 -270 29 -203 11 -4320 11 -4527 -1z m4582 -519 c204 -17 330 -72
458 -199 125 -126 181 -253 199 -452 13 -155 13 -4473 0 -4628 -18 -199 -74
-326 -199 -452 -126 -125 -253 -181 -452 -199 -155 -13 -4473 -13 -4628 0
-199 18 -326 74 -452 199 -125 126 -181 253 -199 452 -13 155 -13 4473 0 4628
18 199 74 326 199 452 122 122 258 183 440 198 143 12 4492 13 4634 1z"/>
</g>
</svg>
