<?xml version="1.0" standalone="no"?>
<!DOCTYPE svg PUBLIC "-//W3C//DTD SVG 20010904//EN"
 "http://www.w3.org/TR/2001/REC-SVG-20010904/DTD/svg10.dtd">
<svg version="1.0" xmlns="http://www.w3.org/2000/svg"
 width="1634.000000pt" height="1633.000000pt" viewBox="0 0 1634.000000 1633.000000"
 preserveAspectRatio="xMidYMid meet">

<g transform="translate(0.000000,1633.000000) scale(0.100000,-0.100000)"
fill="#000000" stroke="none">
<path d="M11090 12374 c-636 -79 -1100 -595 -1100 -1224 0 -262 90 -532 244
-737 l54 -72 -240 -325 c-132 -179 -243 -326 -247 -326 -4 0 -96 246 -205 548
-260 715 -321 877 -351 928 -30 52 -101 99 -168 114 -37 8 -377 10 -1172 8
l-1120 -3 -51 -27 c-72 -38 -108 -86 -155 -208 -139 -360 -2333 -6415 -2345
-6473 -31 -148 20 -262 146 -328 l45 -24 3510 0 3510 0 45 24 c128 67 180 189
147 346 -8 39 -374 1056 -812 2260 -438 1205 -797 2197 -797 2205 -1 10 657
915 696 957 2 2 43 -11 92 -27 150 -51 234 -64 399 -64 262 0 477 63 685 203
520 348 694 1031 406 1588 -170 328 -487 566 -850 639 -73 14 -303 26 -366 18z
m302 -533 c236 -60 427 -241 505 -476 24 -71 27 -96 27 -215 0 -119 -3 -144
-27 -215 -64 -193 -200 -345 -384 -431 -97 -46 -180 -64 -294 -64 -398 0 -712
312 -712 710 0 328 215 607 533 689 102 27 252 27 352 2z m-2271 -1891 c288
-792 289 -795 271 -820 -10 -14 -418 -566 -906 -1227 l-888 -1203 -1009 0
c-555 0 -1009 3 -1009 8 0 4 329 915 732 2024 l733 2018 893 -3 894 -2 289
-795z m844 -2322 c181 -497 330 -909 333 -915 3 -10 -202 -13 -1008 -13 -598
0 -1010 4 -1008 9 6 17 1342 1821 1349 1821 3 0 154 -406 334 -902z m553
-1520 c166 -448 483 -1330 480 -1333 -3 -3 -1382 -4 -3065 -3 l-3060 3 246
675 c135 371 250 683 253 693 7 16 139 17 2567 17 l2560 0 19 -52z"/>
</g>
</svg>
