<?xml version="1.0" standalone="no"?>
<!DOCTYPE svg PUBLIC "-//W3C//DTD SVG 20010904//EN"
 "http://www.w3.org/TR/2001/REC-SVG-20010904/DTD/svg10.dtd">
<svg version="1.0" xmlns="http://www.w3.org/2000/svg"
 width="1633.000000pt" height="1633.000000pt" viewBox="0 0 1633.000000 1633.000000"
 preserveAspectRatio="xMidYMid meet">

<g transform="translate(0.000000,1633.000000) scale(0.100000,-0.100000)"
fill="#000000" stroke="none">
<path d="M7651 12169 c-187 -14 -352 -68 -489 -160 -68 -47 -187 -164 -238
-235 -93 -130 -163 -320 -179 -486 l-6 -66 -697 -4 c-757 -5 -801 -8 -952 -65
-284 -106 -506 -356 -586 -658 -23 -85 -27 -120 -27 -240 0 -120 4 -155 27
-240 94 -355 386 -636 724 -696 72 -12 74 -13 66 -38 -12 -43 -17 -3821 -5
-4024 12 -202 29 -296 75 -418 112 -300 347 -526 653 -629 200 -67 97 -63
2203 -68 1939 -3 2173 0 2338 34 456 94 783 455 844 935 10 83 13 501 13 2089
0 1092 -3 2013 -7 2046 l-7 62 67 12 c335 62 625 343 718 695 23 85 27 120 27
240 0 120 -4 155 -27 240 -80 302 -302 552 -586 658 -151 57 -195 60 -947 64
l-692 5 -6 66 c-15 157 -82 346 -166 469 -47 69 -164 188 -235 239 -82 58
-212 120 -307 144 -43 11 -142 24 -220 30 -165 11 -1209 11 -1376 -1z m1414
-519 c38 -6 93 -21 122 -35 63 -28 155 -112 190 -173 30 -51 63 -152 63 -193
l0 -29 -1090 0 -1090 0 0 29 c0 41 33 142 63 193 36 61 128 145 191 174 29 13
80 28 112 33 85 12 1354 13 1439 1z m2262 -960 c144 -19 265 -110 332 -249 35
-73 36 -80 36 -186 0 -106 -1 -113 -36 -186 -67 -139 -188 -230 -332 -249 -97
-13 -5867 -13 -5964 0 -144 19 -265 110 -332 249 -35 73 -36 80 -36 186 0 106
1 113 36 186 65 135 189 231 323 248 88 12 5884 13 5973 1z m-440 -1412 c13
-20 16 -3942 3 -4076 -19 -204 -94 -340 -238 -435 -91 -60 -161 -84 -282 -97
-134 -13 -3906 -14 -4040 0 -185 19 -329 99 -421 233 -60 90 -87 169 -99 297
-13 126 -9 4058 3 4078 7 9 525 12 2537 12 2012 0 2530 -3 2537 -12z"/>
<path d="M7150 8251 c-70 -23 -113 -58 -146 -121 -18 -34 -19 -81 -19 -1150 0
-1069 1 -1116 19 -1150 44 -84 110 -124 201 -124 91 0 157 40 201 124 18 34
19 81 19 1150 0 1069 -1 1116 -19 1150 -26 49 -55 79 -99 102 -44 22 -120 31
-157 19z"/>
<path d="M8279 8247 c-57 -21 -97 -54 -126 -105 l-28 -47 0 -1116 0 -1116 30
-49 c19 -30 49 -60 79 -79 42 -25 59 -30 116 -30 57 0 74 5 116 30 30 19 60
49 79 79 l30 49 0 1117 0 1117 -30 49 c-56 90 -175 135 -266 101z"/>
<path d="M9419 8247 c-57 -21 -97 -54 -126 -105 l-28 -47 0 -1116 0 -1116 30
-49 c19 -30 49 -60 79 -79 42 -25 59 -30 116 -30 57 0 74 5 116 30 30 19 60
49 79 79 l30 49 0 1117 0 1117 -30 49 c-56 90 -175 135 -266 101z"/>
</g>
</svg>
