<?xml version="1.0" standalone="no"?>
<!DOCTYPE svg PUBLIC "-//W3C//DTD SVG 20010904//EN"
 "http://www.w3.org/TR/2001/REC-SVG-20010904/DTD/svg10.dtd">
<svg version="1.0" xmlns="http://www.w3.org/2000/svg"
 width="1633.000000pt" height="1633.000000pt" viewBox="0 0 1633.000000 1633.000000"
 preserveAspectRatio="xMidYMid meet">

<g transform="translate(0.000000,1633.000000) scale(0.100000,-0.100000)"
fill="#000000" stroke="none">
<path d="M7630 11953 c-29 -11 -66 -37 -105 -77 -63 -63 -2879 -3418 -2965
-3531 -79 -105 -89 -223 -26 -329 27 -45 2894 -3466 2984 -3560 71 -75 116
-96 207 -96 156 0 263 100 273 256 6 88 -11 129 -95 234 -33 41 -610 730
-1281 1530 l-1221 1455 3347 5 3347 5 50 27 c99 52 149 133 149 243 0 111 -51
192 -154 246 l-45 24 -3387 5 -3387 5 1300 1550 c716 853 1313 1568 1328 1590
63 91 69 188 19 286 -65 125 -204 179 -338 132z"/>
</g>
</svg>
