<?xml version="1.0" standalone="no"?>
<!DOCTYPE svg PUBLIC "-//W3C//DTD SVG 20010904//EN"
 "http://www.w3.org/TR/2001/REC-SVG-20010904/DTD/svg10.dtd">
<svg version="1.0" xmlns="http://www.w3.org/2000/svg"
 width="1633.000000pt" height="1634.000000pt" viewBox="0 0 1633.000000 1634.000000"
 preserveAspectRatio="xMidYMid meet">

<g transform="translate(0.000000,1634.000000) scale(0.100000,-0.100000)"
fill="#000000" stroke="none">
<path d="M12357 13762 l-1198 -556 330 -330 329 -331 -959 -820 c-527 -451
-975 -833 -994 -848 l-35 -29 -117 80 c-498 337 -947 516 -1478 588 -177 24
-532 25 -704 1 -481 -67 -914 -253 -1284 -551 -105 -84 -278 -251 -359 -346
l-46 -55 28 -119 c86 -352 53 -657 -105 -964 -160 -313 -431 -544 -768 -657
-147 -49 -267 -68 -432 -67 -281 1 -500 70 -768 242 -60 38 -101 59 -109 54
-28 -17 -236 -170 -288 -212 -188 -152 -373 -337 -525 -527 -76 -94 -231 -328
-296 -445 -284 -517 -427 -1157 -390 -1745 33 -504 144 -925 365 -1380 225
-463 506 -848 904 -1237 725 -707 1589 -1151 2487 -1274 183 -25 574 -30 765
-10 562 59 1086 259 1509 576 351 263 618 578 835 988 l76 143 -78 92 c-43 51
-93 114 -111 140 -53 77 -120 228 -148 334 -23 87 -26 117 -26 263 0 146 3
176 26 263 82 308 285 559 560 692 267 129 546 135 849 19 l69 -26 72 47 c208
138 426 332 579 515 526 629 708 1473 503 2327 -92 383 -296 825 -537 1162
-50 71 -59 88 -49 103 6 9 394 452 862 984 l852 966 316 -316 316 -315 578
1192 578 1192 -383 377 c-211 208 -387 378 -393 377 -5 0 -549 -251 -1208
-557z m1353 -307 c0 -6 -131 -281 -291 -611 -160 -329 -311 -642 -336 -694
l-44 -94 -494 494 c-272 272 -491 498 -487 502 4 4 322 154 707 332 l700 325
123 -122 c67 -67 122 -127 122 -132z m-5533 -2450 c314 -42 638 -150 943 -315
113 -62 293 -175 297 -186 2 -5 -531 -465 -1183 -1023 l-1186 -1014 678 -678
c373 -373 681 -676 686 -673 4 3 470 530 1035 1170 826 939 1028 1163 1038
1152 23 -25 145 -227 199 -330 149 -282 252 -597 292 -898 18 -140 18 -439 -1
-585 -30 -227 -117 -501 -217 -685 -126 -231 -330 -478 -514 -620 l-51 -40
-99 22 c-134 30 -442 32 -579 5 -497 -100 -899 -414 -1115 -869 -102 -218
-139 -376 -147 -633 -5 -154 -2 -198 16 -304 34 -201 111 -403 226 -597 l18
-30 -45 -70 c-400 -614 -1073 -1003 -1858 -1074 -720 -64 -1530 183 -2239 683
-289 204 -687 575 -893 832 -413 516 -659 1053 -750 1640 -30 193 -32 615 -4
810 92 647 412 1238 897 1661 l100 87 52 -23 c254 -112 474 -166 727 -177 814
-34 1562 476 1829 1250 91 263 123 568 87 836 l-12 93 76 67 c332 293 708 466
1126 520 118 15 442 12 571 -4z"/>
<path d="M6079 7890 c-92 -15 -169 -69 -214 -152 -27 -47 -30 -63 -30 -138 0
-69 4 -94 24 -135 19 -40 175 -201 765 -791 827 -827 792 -797 925 -797 117 0
221 66 272 172 32 65 32 177 1 246 -19 41 -158 185 -780 806 -706 706 -760
758 -807 772 -71 21 -103 25 -156 17z"/>
<path d="M4882 5722 c-204 -614 -372 -1120 -372 -1124 0 -3 507 163 1126 369
l1126 375 -748 749 c-412 412 -751 749 -754 749 -3 0 -173 -503 -378 -1118z"/>
</g>
</svg>
